<svg id="e1mul8MkUgw1" xmlns="http://www.w3.org/2000/svg" xmlns:xlink="http://www.w3.org/1999/xlink" viewBox="0 0 640 360" shape-rendering="geometricPrecision" text-rendering="geometricPrecision" project-id="633efec910ef46e6a1db0bb2a59704d6" export-id="0046dbf61bfc429c927c1f8c395f6cd5" cached="false"><path d="M55.979035,79.394237c-61.273462-10.32383-5.221546-67.844258,26.764831-43.59232C118.728209,63.08509,80.741439,200.899634,66.387581,235.72533c-6.223802,15.100351-14.798866,45.675409-32.71257,51.108244C4.514537,295.677313,1.38937,241.950499,16.57526,225.203045c19.57806-21.591271,41.199429-3.763168,62.451275-13.528656c34.609537-15.903511,65.992775-51.326548,78.064093-87.936241c4.147191-12.577527,20.206952-49.264671,5.204273-59.375748-17.285181-11.649373-30.487995,14.806839-33.456036,27.808893-9.638701,42.224086-8.193722,88.849091-.743466,131.528561c1.776209,10.175171,5.625662,36.898995,18.586693,39.082778c12.899385,2.173389,62.513575-61.847328,72.859821-75.159175c6.534421-8.407418,14.031924-17.360943,22.304024-24.050941c3.13653-2.536642,6.519472-4.833259,10.408546-6.012733c1.210357-.367079,4.418284-1.814509,3.71734-.75159-2.117465,3.210915-10.75925,7.152671-14.125886,9.770695-19.773346,15.376477-35.539999,28.264412-46.838456,51.108244-5.458947,11.037208-8.178147,23.833576-8.178147,36.076407c0,3.256895-3.189316,9.310094,0,9.770695c5.074588.732863,47.752034-39.870442,51.299263-45.847101c6.700188-11.289016,8.921613-22.775155,8.921613-36.076407c0-4.008485,2.803791-9.191036,0-12.025466-1.021796-1.032962-1.486932,2.505305-2.230399,3.757962-4.510709,7.60001-8.308922,15.322683-11.895478,23.299341-5.74718,12.781956-24.308509,65.821379-2.230399,71.401223c20.284012,5.126416,58.799592-57.261092,65.425149-71.401223c4.289728-9.155048,8.297815-18.352748,11.895478-27.808893.479079-1.259226,1.748663-5.080907,1.486932-3.757962-8.663041,43.788541-38.248386,87.901241-58.733934,127.019009-6.015465,11.486714-12.110541,22.982576-17.843227,34.573226-.893535,1.806598-1.186795,6.164441-2.973874,5.261142-4.724463-2.38804,6.919159-42.534964,8.921613-48.101873c12.848041-35.718198,48.504682-110.091176,86.242241-124.764238c31.751195-12.345443,10.079374,53.305653,2.230399,63.8853-14.966502,20.173394-44.647593,8.307481-49.81233,13.528656-3.259594,3.295213,7.028914,6.183437,11.152012,8.267514c37.399025,18.903851,69.204344-36.170207,85.498765-60.878938c6.511296-9.873671,13.723857-21.50331,18.586693-32.318445.746577-1.660413,1.486932-5.261142,1.486932-5.261142s-.839278,3.558826-1.486932,5.261142c-3.64859,9.589989-7.619675,19.195003-11.895478,28.560493-17.108753,37.474041-31.54926,77.145357-46.09499,115.745134-4.277359,11.350751-7.838778,23.481514-12.638954,34.573226-.410035.947466-8.492901,20.061452-8.921613,19.541389-5.35123-6.491649,12.228397-47.748123,14.869352-54.114605c17.831332-42.985525,41.804731-78.857886,68.399014-116.496724c4.559379-6.45288,26.265339-44.9833,33.456045-46.598692c3.464744-.778353,6.440449,24.615727,6.691205,26.305712c3.160414,21.299696-1.927406,44.171902-20.073625,57.120977-11.788739,8.412395-29.078578,11.269445-43.121116,10.522285-8.398816-.446869-15.597301-12.313559-9.66508-7.515914c37.431171,30.272159,82.214908-17.943929,101.111593-46.598692c3.481979-5.280033,21.921553-40.593189,16.356285-44.343911-.700602-.472175-9.70231,20.834272-10.408546,22.547751-5.077112,12.31822-16.481369,68.644906,1.486932,75.910775c13.660257,5.523816,54.696129-43.497897,61.707809-52.611425c7.319974-9.514245,16.204442-19.141688,17.843217-31.566855.360284-2.731664,2.726049-8.267514,0-8.267514-4.731131,0-5.947739,33.368236-5.947739,35.324816c0,36.94157,3.161031,76.883135-6.691205,112.738763-12.390152,45.091953-61.698238,63.401983-86.985707,16.535018-17.039917-31.581229,33.136454-32.696244,51.299263-39.082778c49.027764-17.239478,103.10811-30.38462,114.494004-87.936241" transform="translate(0.000001 0)" fill="none" stroke="#3f5787" stroke-width="1.28"/></svg>
