<svg id="e7KNIq95Ao21" xmlns="http://www.w3.org/2000/svg" xmlns:xlink="http://www.w3.org/1999/xlink" viewBox="0 0 640 360" shape-rendering="geometricPrecision" text-rendering="geometricPrecision" project-id="633efec910ef46e6a1db0bb2a59704d6" export-id="a4d4dc8f791e410cbdd6b1aaeb7e543a" cached="false"><path d="M145.80013,272.56695c5.44557-32.67342-13.40336-228.49243,57.80536-215.54539c55.825,10.15,69.34494,131.76838,44.08883,171.45656-16.16749,25.40606-44.80888,31.83603-70.54213,42.12933-10.65553,4.26221-20.17848,4.86273-31.35206,5.87851-1.65842.15077-6.38821.23503-4.89876.97975c31.06443,15.53221,96.20667-53.81239,121.48922-67.60287c18.31798-9.99163,42.639-15.94683,62.70412-19.59504c15.7831-2.86965,32.23355-3.7034,48.00784-6.85826.06342-.01268,9.79752-.97975,9.79752-.97975s-29.06251,3.74289-31.35206,3.91901c-32.88086,2.5293-67.68116,12.97165-79.35989,48.00784-1.95154,5.85461-5.71776,16.52109-1.9595,22.53429c3.25508,5.20813,12.37647,7.69389,17.63553,9.79752c34.62766,13.85107,60.02956-15.02715,79.35989-39.19007c7.55777-9.44722,8.81777-19.76808,8.81777-31.35206c0-1.9595,0-3.91901,0-5.87851c0-3.26584,0-13.06336,0-9.79752c0,20.55813-26.86056,85.68756,7.83801,89.15741c27.68459,2.76846,17.93464-57.85712,19.59504-74.46114.32658-3.26584-2.30238-9.79752.97975-9.79752c3.26584,0,.32496,6.54789,0,9.79752-1.38465,13.84646-14.06004,92.66693,22.53429,79.35989c26.81098-9.74944,32.80405-60.83147,38.21032-84.25865.07948-.34442,1.9595-16.65578,1.9595-16.65578s.16248,3.27394,0,4.89876c-1.08382,10.83822-3.99682,21.50851-4.89876,32.33181-2.26756,27.2107-8.71426,81.66284-30.3723,100.91444-9.03603,8.03202-24.98982,7.83801-36.25082,7.83801-9.34986,0-19.26729-.38982-24.4938-9.79752-14.30424-25.74763,53.16299-33.43976,66.62312-40.16982c36.05639-18.0282,64.14632-55.15612,88.17766-87.19791" transform="translate(0 0.000001)" fill="none" stroke="#3f5787" stroke-width="1.28"/></svg>
