<svg id="eRnU1YlvgKt1" xmlns="http://www.w3.org/2000/svg" xmlns:xlink="http://www.w3.org/1999/xlink" viewBox="0 0 640 360" shape-rendering="geometricPrecision" text-rendering="geometricPrecision" project-id="633efec910ef46e6a1db0bb2a59704d6" export-id="1fe576e830a1480a8fa367352d033f63" cached="false"><path d="M155.59765,87.39386c-4.41769,0-80.29178,6.8104-81.3194,7.83801-4.08149,4.08149-3.39118,33.83585-3.91901,40.16982-.49532,5.94385-5.70332,21.10037-3.91901,26.4533c1.89377,5.68131,34.10527,0,41.14958,0c3.26584,0,9.79752,0,9.79752,0s-3.27148-.13561-4.89876,0c-11.99526.99961-32.59427-.9428-43.10908,4.89876-4.70033,2.61129-10.03821,57.51374-10.77727,65.64337-.62966,6.92629-1.56626,13.70981-2.93926,20.57479-.64368,3.21839-4.26188,9.79752-.97975,9.79752c0,0,3.91901-9.79752,3.91901-9.79752c10.08201-18.14761,30.80273-38.06308,49.96734-46.04834c12.50345-5.20977,23.08637-7.16463,36.25082-9.79752c3.21839-.64368,9.79752-4.26188,9.79752-.97975c0,3.33052-6.56644,1.15173-9.79752,1.9595-20.69511,5.17378-77.79754,18.80074-59.76486,54.8661c16.8014,33.6028,53.93604-30.00667,58.78511-42.12933.20834-.52086,1.54025-9.79752,2.93926-9.79752c3.93259,0,1.57773,7.87016.97975,11.75702-2.79811,18.18774-2.44655,35.81078,18.61528,42.12933c46.44112,13.93233,77.40039-63.89636,77.40039-97.97518c0-6.273-.95456-15.67603-9.79752-15.67603-20.68451,0-33.00428,80.63937,23.51404,63.68387c2.20075-.66022,24.95673-9.44236,24.4938-11.75702-.34491-1.72456-3.20202-1.49676-4.89876-1.9595-13.5859-3.70524-78.72178.04517-83.2789,13.71653-9.28931,27.86793,40.92129-3.99984,48.00784,13.71653c4.70846,11.77115-2.51508,48.98759,17.63553,48.98759c27.10949,0,46.57534-86.38297,56.8256-104.83344c2.40243-4.32438,9.53645-33.31156,14.69628-33.31156.81564,0-5.40641,16.50249-5.87851,17.63553-4.65063,11.16151-10.52235,23.55909-13.71653,35.27106-5.51213,20.21113-7.72362,40.69197-12.73677,60.74461-.88557,3.5423,1.69182,10.77727-1.9595,10.77727-1.29999,0-.97975-9.60724-.97975-9.79752c0-14.97105,10.16354-53.06595,31.35206-50.94709c26.26055,2.62606,3.80646,69.61865,23.51404,59.76486c10.57359-5.28679,16.32671-26.1608,25.47355-34.29131c13.5785-12.06978,29.57974-6.83259,45.06858-13.71653c4.08183-1.81415,4.66561-4.18359,6.85826-7.83802c1.8097-3.01616,3.56901-6.29756,3.91901-9.79752.3073-3.07297.27548-7.24325-1.9595-9.79752-31.87497-36.42854-56.27201,65.40662-38.21032,75.44089c26.01019,14.45011,47.74343-33.85268,54.8661-50.94709c2.41047-5.78512,3.20947-11.723,4.89876-17.63553.76656-2.68297,2.11866-5.17107,2.93926-7.83801.48973-1.59162.23503-6.38821.97975-4.89876c6.22878,12.45756-7.96908,43.37769-8.81777,57.80536-.41907,7.12411,0,14.41367,0,21.55454c0,3.60724,1.57095,13.32797-.97975,10.77727-2.54023-2.54023,0-7.18485,0-10.77727c0-28.09619,3.25461-66.52178,36.25082-76.42064c32.16203-9.64861,11.82154,36.24006,41.14958,31.35206c17.85083-2.97514,28.23407-17.4568,40.16982-29.39255.29918-.29918,8.81777-5.87851,8.81777-5.87851s-6.59204,3.15032-9.79752,4.89876c-15.84989,8.6454-29.64123,19.61-34.29131,38.21032-6.33336,25.33344,43.0866,27.72857,36.25082,43.10908-10.99571,24.74036-39.24788,16.36674-44.08883-7.83801" fill="none" stroke="#3f5787" stroke-width="1.28"/></svg>
